<svg xmlns="http://www.w3.org/2000/svg" xmlns:xlink="http://www.w3.org/1999/xlink" width="25" height="34" viewBox="0 0 22 30">
    <defs>
        <path id="a" d="M.35 11.24H.348a1.232 1.232 0 0 1 0-1.707l2.457-2.53L.343 4.467a1.233 1.233 0 0 1 0-1.707h.001a1.149 1.149 0 0 1 1.658 0l4.123 4.243-4.117 4.238a1.15 1.15 0 0 1-1.659 0"/>
    </defs>
    <g fill="none" fill-rule="evenodd">
        <g transform="translate(2 2)">
            <ellipse cx="9" cy="25.421" fill="#343434" fill-opacity=".199" rx="4.68" ry="2.579"/>
            <g fill-rule="nonzero" stroke="#717584" stroke-width="2">
                <path fill="#4A4A4A" d="M8.973-.523c5.453 0 9.864 4.531 9.864 10.105 0 1.567-.689 3.384-1.929 5.435-.738 1.223-1.66 2.505-2.726 3.823a57.506 57.506 0 0 1-4.52 4.95l-.69.658-.69-.658a55.573 55.573 0 0 1-1.419-1.433 57.506 57.506 0 0 1-3.101-3.517c-1.065-1.318-1.987-2.6-2.726-3.823-1.24-2.051-1.929-3.868-1.929-5.435 0-5.574 4.411-10.105 9.866-10.105z"/>
                <path fill="#FFF" d="M8.973-.523c5.453 0 9.864 4.531 9.864 10.105 0 1.567-.689 3.384-1.929 5.435-.738 1.223-1.66 2.505-2.726 3.823a57.506 57.506 0 0 1-4.52 4.95l-.69.658-.69-.658a55.573 55.573 0 0 1-1.419-1.433 57.506 57.506 0 0 1-3.101-3.517c-1.065-1.318-1.987-2.6-2.726-3.823-1.24-2.051-1.929-3.868-1.929-5.435 0-5.574 4.411-10.105 9.866-10.105z"/>
            </g>
        </g>
        <g transform="translate(9 5)">
            <mask id="b" fill="#fff">
                <use xlink:href="#a"/>
            </mask>
            <use fill="#717584" xlink:href="#a"/>
            <g fill="#717584" fill-rule="nonzero" stroke="#D5D5D5" mask="url(#b)">
                <path d="M-.705.376v13h14v-13h-14z"/>
            </g>
        </g>
    </g>
</svg>
